<?xml version="1.0" encoding="UTF-8" standalone="no"?>
<!DOCTYPE svg PUBLIC "-//W3C//DTD SVG 1.1//EN"
 "http://www.w3.org/Graphics/SVG/1.1/DTD/svg11.dtd">
<!-- Generated by graphviz version 2.43.0 (0)
 -->
<!-- Title: %3 Pages: 1 -->
<svg width="2737pt" height="238pt"
 viewBox="0.00 0.00 2737.00 237.74" xmlns="http://www.w3.org/2000/svg" xmlns:xlink="http://www.w3.org/1999/xlink">
<g id="graph0" class="graph" transform="scale(1 1) rotate(0) translate(36 201.74)">
<title>%3</title>
<polygon fill="dimgray" stroke="transparent" points="-36,36 -36,-201.74 2701,-201.74 2701,36 -36,36"/>
<text text-anchor="middle" x="1332.5" y="-150.54" font-family="Helvetica,sans-Serif" font-size="14.00">Sweep&#39;s Plan &amp; Progress</text>
<!-- start -->
<g id="node1" class="node">
<title>start</title>
</g>
<!-- 3d6f9e76&#45;949c&#45;45f3&#45;81b9&#45;f93551da6611 -->
<g id="node3" class="node">
<title>3d6f9e76&#45;949c&#45;45f3&#45;81b9&#45;f93551da6611</title>
<ellipse fill="#0ee832" stroke="black" cx="221.5" cy="-99.87" rx="101.23" ry="26.74"/>
<text text-anchor="middle" x="221.5" y="-103.67" font-family="Helvetica,sans-Serif" font-size="14.00">✓ Modify</text>
<text text-anchor="middle" x="221.5" y="-88.67" font-family="Helvetica,sans-Serif" font-size="14.00">main/main/urls.py</text>
</g>
<!-- start&#45;&gt;3d6f9e76&#45;949c&#45;45f3&#45;81b9&#45;f93551da6611 -->
<g id="edge14" class="edge">
<title>start&#45;&gt;3d6f9e76&#45;949c&#45;45f3&#45;81b9&#45;f93551da6611</title>
<path fill="none" stroke="black" d="M69.18,-99.87C72.66,-99.87 89.09,-99.87 109.96,-99.87"/>
<polygon fill="black" stroke="black" points="110.17,-103.37 120.17,-99.87 110.17,-96.37 110.17,-103.37"/>
<text text-anchor="middle" x="94.69" y="-106.67" font-family="Helvetica,sans-Serif" font-size="14.00">Start</text>
</g>
<!-- end -->
<g id="node2" class="node">
<title>end</title>
</g>
<!-- 5efa5089&#45;ca33&#45;4e11&#45;bad9&#45;f62b9dfc4952 -->
<g id="node4" class="node">
<title>5efa5089&#45;ca33&#45;4e11&#45;bad9&#45;f62b9dfc4952</title>
<ellipse fill="#0ee832" stroke="black" cx="538.5" cy="-99.87" rx="125.32" ry="26.74"/>
<text text-anchor="middle" x="538.5" y="-103.67" font-family="Helvetica,sans-Serif" font-size="14.00">✓ Modify</text>
<text text-anchor="middle" x="538.5" y="-88.67" font-family="Helvetica,sans-Serif" font-size="14.00">main/mystore/views.py</text>
</g>
<!-- 3d6f9e76&#45;949c&#45;45f3&#45;81b9&#45;f93551da6611&#45;&gt;5efa5089&#45;ca33&#45;4e11&#45;bad9&#45;f62b9dfc4952 -->
<g id="edge2" class="edge">
<title>3d6f9e76&#45;949c&#45;45f3&#45;81b9&#45;f93551da6611&#45;&gt;5efa5089&#45;ca33&#45;4e11&#45;bad9&#45;f62b9dfc4952</title>
<path fill="none" stroke="black" d="M322.73,-99.87C349.51,-99.87 376.29,-99.87 403.07,-99.87"/>
<polygon fill="black" stroke="black" points="403.34,-103.37 413.34,-99.87 403.34,-96.37 403.34,-103.37"/>
</g>
<!-- 66c4b854&#45;b9f5&#45;4f3c&#45;9756&#45;9bba57cc99c0 -->
<g id="node10" class="node">
<title>66c4b854&#45;b9f5&#45;4f3c&#45;9756&#45;9bba57cc99c0</title>
<polygon fill="#0ee832" stroke="black" points="335,-36 0,-36 0,0 335,0 335,-36"/>
<text text-anchor="middle" x="167.5" y="-14.3" font-family="Helvetica,sans-Serif" font-size="14.00">✓ Run GitHub Actions for `main/main/urls.py`</text>
</g>
<!-- 3d6f9e76&#45;949c&#45;45f3&#45;81b9&#45;f93551da6611&#45;&gt;66c4b854&#45;b9f5&#45;4f3c&#45;9756&#45;9bba57cc99c0 -->
<g id="edge1" class="edge">
<title>3d6f9e76&#45;949c&#45;45f3&#45;81b9&#45;f93551da6611&#45;&gt;66c4b854&#45;b9f5&#45;4f3c&#45;9756&#45;9bba57cc99c0</title>
<path fill="none" stroke="black" stroke-dasharray="5,2" d="M204.12,-73.16C197.95,-64.04 191.01,-53.77 184.84,-44.65"/>
<polygon fill="black" stroke="black" points="187.72,-42.66 179.22,-36.34 181.92,-46.58 187.72,-42.66"/>
</g>
<!-- 604c194e&#45;882a&#45;419b&#45;8c1d&#45;cde66ae64700 -->
<g id="node5" class="node">
<title>604c194e&#45;882a&#45;419b&#45;8c1d&#45;cde66ae64700</title>
<ellipse fill="#0ee832" stroke="black" cx="928.5" cy="-99.87" rx="128.89" ry="26.74"/>
<text text-anchor="middle" x="928.5" y="-103.67" font-family="Helvetica,sans-Serif" font-size="14.00">✓ Modify</text>
<text text-anchor="middle" x="928.5" y="-88.67" font-family="Helvetica,sans-Serif" font-size="14.00">main/mystore/admin.py</text>
</g>
<!-- 5efa5089&#45;ca33&#45;4e11&#45;bad9&#45;f62b9dfc4952&#45;&gt;604c194e&#45;882a&#45;419b&#45;8c1d&#45;cde66ae64700 -->
<g id="edge4" class="edge">
<title>5efa5089&#45;ca33&#45;4e11&#45;bad9&#45;f62b9dfc4952&#45;&gt;604c194e&#45;882a&#45;419b&#45;8c1d&#45;cde66ae64700</title>
<path fill="none" stroke="black" d="M663.8,-99.87C705.76,-99.87 747.72,-99.87 789.68,-99.87"/>
<polygon fill="black" stroke="black" points="789.77,-103.37 799.77,-99.87 789.77,-96.37 789.77,-103.37"/>
</g>
<!-- f101ff5e&#45;6951&#45;4870&#45;bd89&#45;78efb8a521ce -->
<g id="node11" class="node">
<title>f101ff5e&#45;6951&#45;4870&#45;bd89&#45;78efb8a521ce</title>
<polygon fill="#0ee832" stroke="black" points="723.5,-36 353.5,-36 353.5,0 723.5,0 723.5,-36"/>
<text text-anchor="middle" x="538.5" y="-14.3" font-family="Helvetica,sans-Serif" font-size="14.00">✓ Run GitHub Actions for `main/mystore/views.py`</text>
</g>
<!-- 5efa5089&#45;ca33&#45;4e11&#45;bad9&#45;f62b9dfc4952&#45;&gt;f101ff5e&#45;6951&#45;4870&#45;bd89&#45;78efb8a521ce -->
<g id="edge3" class="edge">
<title>5efa5089&#45;ca33&#45;4e11&#45;bad9&#45;f62b9dfc4952&#45;&gt;f101ff5e&#45;6951&#45;4870&#45;bd89&#45;78efb8a521ce</title>
<path fill="none" stroke="black" stroke-dasharray="5,2" d="M538.5,-72.72C538.5,-64.27 538.5,-54.89 538.5,-46.36"/>
<polygon fill="black" stroke="black" points="542,-46.15 538.5,-36.15 535,-46.15 542,-46.15"/>
</g>
<!-- 285886de&#45;6b0b&#45;448b&#45;8249&#45;ad6c0bfb51df -->
<g id="node6" class="node">
<title>285886de&#45;6b0b&#45;448b&#45;8249&#45;ad6c0bfb51df</title>
<ellipse fill="white" stroke="black" cx="1314.5" cy="-99.87" rx="121.74" ry="26.74"/>
<text text-anchor="middle" x="1314.5" y="-103.67" font-family="Helvetica,sans-Serif" font-size="14.00">▶ Modify</text>
<text text-anchor="middle" x="1314.5" y="-88.67" font-family="Helvetica,sans-Serif" font-size="14.00">main/mystore/apps.py</text>
</g>
<!-- 604c194e&#45;882a&#45;419b&#45;8c1d&#45;cde66ae64700&#45;&gt;285886de&#45;6b0b&#45;448b&#45;8249&#45;ad6c0bfb51df -->
<g id="edge6" class="edge">
<title>604c194e&#45;882a&#45;419b&#45;8c1d&#45;cde66ae64700&#45;&gt;285886de&#45;6b0b&#45;448b&#45;8249&#45;ad6c0bfb51df</title>
<path fill="none" stroke="black" d="M1057.42,-99.87C1099.18,-99.87 1140.94,-99.87 1182.69,-99.87"/>
<polygon fill="black" stroke="black" points="1182.74,-103.37 1192.74,-99.87 1182.74,-96.37 1182.74,-103.37"/>
</g>
<!-- 96071ede&#45;1b97&#45;4577&#45;92d2&#45;fc11a32841a4 -->
<g id="node12" class="node">
<title>96071ede&#45;1b97&#45;4577&#45;92d2&#45;fc11a32841a4</title>
<polygon fill="#0ee832" stroke="black" points="1115.5,-36 741.5,-36 741.5,0 1115.5,0 1115.5,-36"/>
<text text-anchor="middle" x="928.5" y="-14.3" font-family="Helvetica,sans-Serif" font-size="14.00">✓ Run GitHub Actions for `main/mystore/admin.py`</text>
</g>
<!-- 604c194e&#45;882a&#45;419b&#45;8c1d&#45;cde66ae64700&#45;&gt;96071ede&#45;1b97&#45;4577&#45;92d2&#45;fc11a32841a4 -->
<g id="edge5" class="edge">
<title>604c194e&#45;882a&#45;419b&#45;8c1d&#45;cde66ae64700&#45;&gt;96071ede&#45;1b97&#45;4577&#45;92d2&#45;fc11a32841a4</title>
<path fill="none" stroke="black" stroke-dasharray="5,2" d="M928.5,-72.72C928.5,-64.27 928.5,-54.89 928.5,-46.36"/>
<polygon fill="black" stroke="black" points="932,-46.15 928.5,-36.15 925,-46.15 932,-46.15"/>
</g>
<!-- a5bd0754&#45;4a03&#45;4e76&#45;9862&#45;ef73fdcb113e -->
<g id="node7" class="node">
<title>a5bd0754&#45;4a03&#45;4e76&#45;9862&#45;ef73fdcb113e</title>
<ellipse fill="white" stroke="black" cx="1699.5" cy="-99.87" rx="127.97" ry="26.74"/>
<text text-anchor="middle" x="1699.5" y="-103.67" font-family="Helvetica,sans-Serif" font-size="14.00">▶ Modify</text>
<text text-anchor="middle" x="1699.5" y="-88.67" font-family="Helvetica,sans-Serif" font-size="14.00">main/mystore/helper.py</text>
</g>
<!-- 285886de&#45;6b0b&#45;448b&#45;8249&#45;ad6c0bfb51df&#45;&gt;a5bd0754&#45;4a03&#45;4e76&#45;9862&#45;ef73fdcb113e -->
<g id="edge8" class="edge">
<title>285886de&#45;6b0b&#45;448b&#45;8249&#45;ad6c0bfb51df&#45;&gt;a5bd0754&#45;4a03&#45;4e76&#45;9862&#45;ef73fdcb113e</title>
<path fill="none" stroke="black" d="M1436.32,-99.87C1478.04,-99.87 1519.75,-99.87 1561.47,-99.87"/>
<polygon fill="black" stroke="black" points="1561.51,-103.37 1571.51,-99.87 1561.51,-96.37 1561.51,-103.37"/>
</g>
<!-- f43e6c92&#45;a9ba&#45;401a&#45;b79a&#45;2cfd753fa8c1 -->
<g id="node13" class="node">
<title>f43e6c92&#45;a9ba&#45;401a&#45;b79a&#45;2cfd753fa8c1</title>
<polygon fill="white" stroke="black" points="1496,-36 1133,-36 1133,0 1496,0 1496,-36"/>
<text text-anchor="middle" x="1314.5" y="-14.3" font-family="Helvetica,sans-Serif" font-size="14.00">▶ Run GitHub Actions for `main/mystore/apps.py`</text>
</g>
<!-- 285886de&#45;6b0b&#45;448b&#45;8249&#45;ad6c0bfb51df&#45;&gt;f43e6c92&#45;a9ba&#45;401a&#45;b79a&#45;2cfd753fa8c1 -->
<g id="edge7" class="edge">
<title>285886de&#45;6b0b&#45;448b&#45;8249&#45;ad6c0bfb51df&#45;&gt;f43e6c92&#45;a9ba&#45;401a&#45;b79a&#45;2cfd753fa8c1</title>
<path fill="none" stroke="black" stroke-dasharray="5,2" d="M1314.5,-72.72C1314.5,-64.27 1314.5,-54.89 1314.5,-46.36"/>
<polygon fill="black" stroke="black" points="1318,-46.15 1314.5,-36.15 1311,-46.15 1318,-46.15"/>
</g>
<!-- 52c125f0&#45;82bc&#45;44c0&#45;89f7&#45;48e7deafe9af -->
<g id="node8" class="node">
<title>52c125f0&#45;82bc&#45;44c0&#45;89f7&#45;48e7deafe9af</title>
<ellipse fill="white" stroke="black" cx="2093.5" cy="-99.87" rx="132.87" ry="26.74"/>
<text text-anchor="middle" x="2093.5" y="-103.67" font-family="Helvetica,sans-Serif" font-size="14.00">▶ Modify</text>
<text text-anchor="middle" x="2093.5" y="-88.67" font-family="Helvetica,sans-Serif" font-size="14.00">main/mystore/models.py</text>
</g>
<!-- a5bd0754&#45;4a03&#45;4e76&#45;9862&#45;ef73fdcb113e&#45;&gt;52c125f0&#45;82bc&#45;44c0&#45;89f7&#45;48e7deafe9af -->
<g id="edge10" class="edge">
<title>a5bd0754&#45;4a03&#45;4e76&#45;9862&#45;ef73fdcb113e&#45;&gt;52c125f0&#45;82bc&#45;44c0&#45;89f7&#45;48e7deafe9af</title>
<path fill="none" stroke="black" d="M1827.63,-99.87C1868.56,-99.87 1909.5,-99.87 1950.44,-99.87"/>
<polygon fill="black" stroke="black" points="1950.56,-103.37 1960.56,-99.87 1950.56,-96.37 1950.56,-103.37"/>
</g>
<!-- e37bb63c&#45;1e94&#45;4983&#45;9031&#45;b92ec00f652f -->
<g id="node14" class="node">
<title>e37bb63c&#45;1e94&#45;4983&#45;9031&#45;b92ec00f652f</title>
<polygon fill="white" stroke="black" points="1885.5,-36 1513.5,-36 1513.5,0 1885.5,0 1885.5,-36"/>
<text text-anchor="middle" x="1699.5" y="-14.3" font-family="Helvetica,sans-Serif" font-size="14.00">▶ Run GitHub Actions for `main/mystore/helper.py`</text>
</g>
<!-- a5bd0754&#45;4a03&#45;4e76&#45;9862&#45;ef73fdcb113e&#45;&gt;e37bb63c&#45;1e94&#45;4983&#45;9031&#45;b92ec00f652f -->
<g id="edge9" class="edge">
<title>a5bd0754&#45;4a03&#45;4e76&#45;9862&#45;ef73fdcb113e&#45;&gt;e37bb63c&#45;1e94&#45;4983&#45;9031&#45;b92ec00f652f</title>
<path fill="none" stroke="black" stroke-dasharray="5,2" d="M1699.5,-72.72C1699.5,-64.27 1699.5,-54.89 1699.5,-46.36"/>
<polygon fill="black" stroke="black" points="1703,-46.15 1699.5,-36.15 1696,-46.15 1703,-46.15"/>
</g>
<!-- 90cb1ad9&#45;0518&#45;4ee1&#45;91b2&#45;c549d35d85d0 -->
<g id="node9" class="node">
<title>90cb1ad9&#45;0518&#45;4ee1&#45;91b2&#45;c549d35d85d0</title>
<ellipse fill="white" stroke="black" cx="2433.5" cy="-99.87" rx="121.74" ry="26.74"/>
<text text-anchor="middle" x="2433.5" y="-103.67" font-family="Helvetica,sans-Serif" font-size="14.00">▶ Modify</text>
<text text-anchor="middle" x="2433.5" y="-88.67" font-family="Helvetica,sans-Serif" font-size="14.00">main/mystore/tests.py</text>
</g>
<!-- 52c125f0&#45;82bc&#45;44c0&#45;89f7&#45;48e7deafe9af&#45;&gt;90cb1ad9&#45;0518&#45;4ee1&#45;91b2&#45;c549d35d85d0 -->
<g id="edge12" class="edge">
<title>52c125f0&#45;82bc&#45;44c0&#45;89f7&#45;48e7deafe9af&#45;&gt;90cb1ad9&#45;0518&#45;4ee1&#45;91b2&#45;c549d35d85d0</title>
<path fill="none" stroke="black" d="M2226.64,-99.87C2251.5,-99.87 2276.36,-99.87 2301.21,-99.87"/>
<polygon fill="black" stroke="black" points="2301.49,-103.37 2311.49,-99.87 2301.49,-96.37 2301.49,-103.37"/>
</g>
<!-- c42cc1d4&#45;bf9e&#45;41a9&#45;8119&#45;25ce5307458d -->
<g id="node15" class="node">
<title>c42cc1d4&#45;bf9e&#45;41a9&#45;8119&#45;25ce5307458d</title>
<polygon fill="white" stroke="black" points="2283.5,-36 1903.5,-36 1903.5,0 2283.5,0 2283.5,-36"/>
<text text-anchor="middle" x="2093.5" y="-14.3" font-family="Helvetica,sans-Serif" font-size="14.00">▶ Run GitHub Actions for `main/mystore/models.py`</text>
</g>
<!-- 52c125f0&#45;82bc&#45;44c0&#45;89f7&#45;48e7deafe9af&#45;&gt;c42cc1d4&#45;bf9e&#45;41a9&#45;8119&#45;25ce5307458d -->
<g id="edge11" class="edge">
<title>52c125f0&#45;82bc&#45;44c0&#45;89f7&#45;48e7deafe9af&#45;&gt;c42cc1d4&#45;bf9e&#45;41a9&#45;8119&#45;25ce5307458d</title>
<path fill="none" stroke="black" stroke-dasharray="5,2" d="M2093.5,-72.72C2093.5,-64.27 2093.5,-54.89 2093.5,-46.36"/>
<polygon fill="black" stroke="black" points="2097,-46.15 2093.5,-36.15 2090,-46.15 2097,-46.15"/>
</g>
<!-- 90cb1ad9&#45;0518&#45;4ee1&#45;91b2&#45;c549d35d85d0&#45;&gt;end -->
<g id="edge15" class="edge">
<title>90cb1ad9&#45;0518&#45;4ee1&#45;91b2&#45;c549d35d85d0&#45;&gt;end</title>
<path fill="none" stroke="black" d="M2555.56,-99.87C2575.1,-99.87 2592.33,-99.87 2602.81,-99.87"/>
<polygon fill="black" stroke="black" points="2602.83,-103.37 2612.83,-99.87 2602.83,-96.37 2602.83,-103.37"/>
<text text-anchor="middle" x="2584.06" y="-106.67" font-family="Helvetica,sans-Serif" font-size="14.00">Finish</text>
</g>
<!-- 59db136f&#45;c261&#45;404a&#45;90ee&#45;25382178ac82 -->
<g id="node16" class="node">
<title>59db136f&#45;c261&#45;404a&#45;90ee&#45;25382178ac82</title>
<polygon fill="white" stroke="black" points="2665,-36 2302,-36 2302,0 2665,0 2665,-36"/>
<text text-anchor="middle" x="2483.5" y="-14.3" font-family="Helvetica,sans-Serif" font-size="14.00">▶ Run GitHub Actions for `main/mystore/tests.py`</text>
</g>
<!-- 90cb1ad9&#45;0518&#45;4ee1&#45;91b2&#45;c549d35d85d0&#45;&gt;59db136f&#45;c261&#45;404a&#45;90ee&#45;25382178ac82 -->
<g id="edge13" class="edge">
<title>90cb1ad9&#45;0518&#45;4ee1&#45;91b2&#45;c549d35d85d0&#45;&gt;59db136f&#45;c261&#45;404a&#45;90ee&#45;25382178ac82</title>
<path fill="none" stroke="black" stroke-dasharray="5,2" d="M2449.6,-73.16C2455.25,-64.13 2461.6,-53.98 2467.26,-44.94"/>
<polygon fill="black" stroke="black" points="2470.31,-46.67 2472.65,-36.34 2464.37,-42.96 2470.31,-46.67"/>
</g>
</g>
</svg>
