<?xml version="1.0" encoding="UTF-8" standalone="no"?>
<!DOCTYPE svg PUBLIC "-//W3C//DTD SVG 1.1//EN"
 "http://www.w3.org/Graphics/SVG/1.1/DTD/svg11.dtd">
<!-- Generated by graphviz version 2.43.0 (0)
 -->
<!-- Title: %3 Pages: 1 -->
<svg width="2735pt" height="238pt"
 viewBox="0.00 0.00 2735.00 237.74" xmlns="http://www.w3.org/2000/svg" xmlns:xlink="http://www.w3.org/1999/xlink">
<g id="graph0" class="graph" transform="scale(1 1) rotate(0) translate(36 201.74)">
<title>%3</title>
<polygon fill="dimgray" stroke="transparent" points="-36,36 -36,-201.74 2699,-201.74 2699,36 -36,36"/>
<text text-anchor="middle" x="1331.5" y="-150.54" font-family="Helvetica,sans-Serif" font-size="14.00">Sweep&#39;s Plan &amp; Progress</text>
<!-- start -->
<g id="node1" class="node">
<title>start</title>
</g>
<!-- 3d6f9e76&#45;949c&#45;45f3&#45;81b9&#45;f93551da6611 -->
<g id="node3" class="node">
<title>3d6f9e76&#45;949c&#45;45f3&#45;81b9&#45;f93551da6611</title>
<ellipse fill="#0ee832" stroke="black" cx="221.5" cy="-99.87" rx="101.23" ry="26.74"/>
<text text-anchor="middle" x="221.5" y="-103.67" font-family="Helvetica,sans-Serif" font-size="14.00">✓ Modify</text>
<text text-anchor="middle" x="221.5" y="-88.67" font-family="Helvetica,sans-Serif" font-size="14.00">main/main/urls.py</text>
</g>
<!-- start&#45;&gt;3d6f9e76&#45;949c&#45;45f3&#45;81b9&#45;f93551da6611 -->
<g id="edge14" class="edge">
<title>start&#45;&gt;3d6f9e76&#45;949c&#45;45f3&#45;81b9&#45;f93551da6611</title>
<path fill="none" stroke="black" d="M69.18,-99.87C72.66,-99.87 89.09,-99.87 109.96,-99.87"/>
<polygon fill="black" stroke="black" points="110.17,-103.37 120.17,-99.87 110.17,-96.37 110.17,-103.37"/>
<text text-anchor="middle" x="94.69" y="-106.67" font-family="Helvetica,sans-Serif" font-size="14.00">Start</text>
</g>
<!-- end -->
<g id="node2" class="node">
<title>end</title>
</g>
<!-- 5efa5089&#45;ca33&#45;4e11&#45;bad9&#45;f62b9dfc4952 -->
<g id="node4" class="node">
<title>5efa5089&#45;ca33&#45;4e11&#45;bad9&#45;f62b9dfc4952</title>
<ellipse fill="white" stroke="black" cx="537.5" cy="-99.87" rx="125.32" ry="26.74"/>
<text text-anchor="middle" x="537.5" y="-103.67" font-family="Helvetica,sans-Serif" font-size="14.00">▶ Modify</text>
<text text-anchor="middle" x="537.5" y="-88.67" font-family="Helvetica,sans-Serif" font-size="14.00">main/mystore/views.py</text>
</g>
<!-- 3d6f9e76&#45;949c&#45;45f3&#45;81b9&#45;f93551da6611&#45;&gt;5efa5089&#45;ca33&#45;4e11&#45;bad9&#45;f62b9dfc4952 -->
<g id="edge2" class="edge">
<title>3d6f9e76&#45;949c&#45;45f3&#45;81b9&#45;f93551da6611&#45;&gt;5efa5089&#45;ca33&#45;4e11&#45;bad9&#45;f62b9dfc4952</title>
<path fill="none" stroke="black" d="M322.72,-99.87C349.13,-99.87 375.54,-99.87 401.95,-99.87"/>
<polygon fill="black" stroke="black" points="402.07,-103.37 412.07,-99.87 402.07,-96.37 402.07,-103.37"/>
</g>
<!-- 66c4b854&#45;b9f5&#45;4f3c&#45;9756&#45;9bba57cc99c0 -->
<g id="node10" class="node">
<title>66c4b854&#45;b9f5&#45;4f3c&#45;9756&#45;9bba57cc99c0</title>
<polygon fill="#0ee832" stroke="black" points="335,-36 0,-36 0,0 335,0 335,-36"/>
<text text-anchor="middle" x="167.5" y="-14.3" font-family="Helvetica,sans-Serif" font-size="14.00">✓ Run GitHub Actions for `main/main/urls.py`</text>
</g>
<!-- 3d6f9e76&#45;949c&#45;45f3&#45;81b9&#45;f93551da6611&#45;&gt;66c4b854&#45;b9f5&#45;4f3c&#45;9756&#45;9bba57cc99c0 -->
<g id="edge1" class="edge">
<title>3d6f9e76&#45;949c&#45;45f3&#45;81b9&#45;f93551da6611&#45;&gt;66c4b854&#45;b9f5&#45;4f3c&#45;9756&#45;9bba57cc99c0</title>
<path fill="none" stroke="black" stroke-dasharray="5,2" d="M204.12,-73.16C197.95,-64.04 191.01,-53.77 184.84,-44.65"/>
<polygon fill="black" stroke="black" points="187.72,-42.66 179.22,-36.34 181.92,-46.58 187.72,-42.66"/>
</g>
<!-- 604c194e&#45;882a&#45;419b&#45;8c1d&#45;cde66ae64700 -->
<g id="node5" class="node">
<title>604c194e&#45;882a&#45;419b&#45;8c1d&#45;cde66ae64700</title>
<ellipse fill="white" stroke="black" cx="926.5" cy="-99.87" rx="128.89" ry="26.74"/>
<text text-anchor="middle" x="926.5" y="-103.67" font-family="Helvetica,sans-Serif" font-size="14.00">▶ Modify</text>
<text text-anchor="middle" x="926.5" y="-88.67" font-family="Helvetica,sans-Serif" font-size="14.00">main/mystore/admin.py</text>
</g>
<!-- 5efa5089&#45;ca33&#45;4e11&#45;bad9&#45;f62b9dfc4952&#45;&gt;604c194e&#45;882a&#45;419b&#45;8c1d&#45;cde66ae64700 -->
<g id="edge4" class="edge">
<title>5efa5089&#45;ca33&#45;4e11&#45;bad9&#45;f62b9dfc4952&#45;&gt;604c194e&#45;882a&#45;419b&#45;8c1d&#45;cde66ae64700</title>
<path fill="none" stroke="black" d="M662.86,-99.87C704.49,-99.87 746.13,-99.87 787.76,-99.87"/>
<polygon fill="black" stroke="black" points="787.77,-103.37 797.77,-99.87 787.77,-96.37 787.77,-103.37"/>
</g>
<!-- f101ff5e&#45;6951&#45;4870&#45;bd89&#45;78efb8a521ce -->
<g id="node11" class="node">
<title>f101ff5e&#45;6951&#45;4870&#45;bd89&#45;78efb8a521ce</title>
<polygon fill="white" stroke="black" points="721.5,-36 353.5,-36 353.5,0 721.5,0 721.5,-36"/>
<text text-anchor="middle" x="537.5" y="-14.3" font-family="Helvetica,sans-Serif" font-size="14.00">▶ Run GitHub Actions for `main/mystore/views.py`</text>
</g>
<!-- 5efa5089&#45;ca33&#45;4e11&#45;bad9&#45;f62b9dfc4952&#45;&gt;f101ff5e&#45;6951&#45;4870&#45;bd89&#45;78efb8a521ce -->
<g id="edge3" class="edge">
<title>5efa5089&#45;ca33&#45;4e11&#45;bad9&#45;f62b9dfc4952&#45;&gt;f101ff5e&#45;6951&#45;4870&#45;bd89&#45;78efb8a521ce</title>
<path fill="none" stroke="black" stroke-dasharray="5,2" d="M537.5,-72.72C537.5,-64.27 537.5,-54.89 537.5,-46.36"/>
<polygon fill="black" stroke="black" points="541,-46.15 537.5,-36.15 534,-46.15 541,-46.15"/>
</g>
<!-- 285886de&#45;6b0b&#45;448b&#45;8249&#45;ad6c0bfb51df -->
<g id="node6" class="node">
<title>285886de&#45;6b0b&#45;448b&#45;8249&#45;ad6c0bfb51df</title>
<ellipse fill="white" stroke="black" cx="1312.5" cy="-99.87" rx="121.74" ry="26.74"/>
<text text-anchor="middle" x="1312.5" y="-103.67" font-family="Helvetica,sans-Serif" font-size="14.00">▶ Modify</text>
<text text-anchor="middle" x="1312.5" y="-88.67" font-family="Helvetica,sans-Serif" font-size="14.00">main/mystore/apps.py</text>
</g>
<!-- 604c194e&#45;882a&#45;419b&#45;8c1d&#45;cde66ae64700&#45;&gt;285886de&#45;6b0b&#45;448b&#45;8249&#45;ad6c0bfb51df -->
<g id="edge6" class="edge">
<title>604c194e&#45;882a&#45;419b&#45;8c1d&#45;cde66ae64700&#45;&gt;285886de&#45;6b0b&#45;448b&#45;8249&#45;ad6c0bfb51df</title>
<path fill="none" stroke="black" d="M1055.42,-99.87C1097.18,-99.87 1138.94,-99.87 1180.69,-99.87"/>
<polygon fill="black" stroke="black" points="1180.74,-103.37 1190.74,-99.87 1180.74,-96.37 1180.74,-103.37"/>
</g>
<!-- 96071ede&#45;1b97&#45;4577&#45;92d2&#45;fc11a32841a4 -->
<g id="node12" class="node">
<title>96071ede&#45;1b97&#45;4577&#45;92d2&#45;fc11a32841a4</title>
<polygon fill="white" stroke="black" points="1113,-36 740,-36 740,0 1113,0 1113,-36"/>
<text text-anchor="middle" x="926.5" y="-14.3" font-family="Helvetica,sans-Serif" font-size="14.00">▶ Run GitHub Actions for `main/mystore/admin.py`</text>
</g>
<!-- 604c194e&#45;882a&#45;419b&#45;8c1d&#45;cde66ae64700&#45;&gt;96071ede&#45;1b97&#45;4577&#45;92d2&#45;fc11a32841a4 -->
<g id="edge5" class="edge">
<title>604c194e&#45;882a&#45;419b&#45;8c1d&#45;cde66ae64700&#45;&gt;96071ede&#45;1b97&#45;4577&#45;92d2&#45;fc11a32841a4</title>
<path fill="none" stroke="black" stroke-dasharray="5,2" d="M926.5,-72.72C926.5,-64.27 926.5,-54.89 926.5,-46.36"/>
<polygon fill="black" stroke="black" points="930,-46.15 926.5,-36.15 923,-46.15 930,-46.15"/>
</g>
<!-- a5bd0754&#45;4a03&#45;4e76&#45;9862&#45;ef73fdcb113e -->
<g id="node7" class="node">
<title>a5bd0754&#45;4a03&#45;4e76&#45;9862&#45;ef73fdcb113e</title>
<ellipse fill="white" stroke="black" cx="1697.5" cy="-99.87" rx="127.97" ry="26.74"/>
<text text-anchor="middle" x="1697.5" y="-103.67" font-family="Helvetica,sans-Serif" font-size="14.00">▶ Modify</text>
<text text-anchor="middle" x="1697.5" y="-88.67" font-family="Helvetica,sans-Serif" font-size="14.00">main/mystore/helper.py</text>
</g>
<!-- 285886de&#45;6b0b&#45;448b&#45;8249&#45;ad6c0bfb51df&#45;&gt;a5bd0754&#45;4a03&#45;4e76&#45;9862&#45;ef73fdcb113e -->
<g id="edge8" class="edge">
<title>285886de&#45;6b0b&#45;448b&#45;8249&#45;ad6c0bfb51df&#45;&gt;a5bd0754&#45;4a03&#45;4e76&#45;9862&#45;ef73fdcb113e</title>
<path fill="none" stroke="black" d="M1434.32,-99.87C1476.04,-99.87 1517.75,-99.87 1559.47,-99.87"/>
<polygon fill="black" stroke="black" points="1559.51,-103.37 1569.51,-99.87 1559.51,-96.37 1559.51,-103.37"/>
</g>
<!-- f43e6c92&#45;a9ba&#45;401a&#45;b79a&#45;2cfd753fa8c1 -->
<g id="node13" class="node">
<title>f43e6c92&#45;a9ba&#45;401a&#45;b79a&#45;2cfd753fa8c1</title>
<polygon fill="white" stroke="black" points="1494,-36 1131,-36 1131,0 1494,0 1494,-36"/>
<text text-anchor="middle" x="1312.5" y="-14.3" font-family="Helvetica,sans-Serif" font-size="14.00">▶ Run GitHub Actions for `main/mystore/apps.py`</text>
</g>
<!-- 285886de&#45;6b0b&#45;448b&#45;8249&#45;ad6c0bfb51df&#45;&gt;f43e6c92&#45;a9ba&#45;401a&#45;b79a&#45;2cfd753fa8c1 -->
<g id="edge7" class="edge">
<title>285886de&#45;6b0b&#45;448b&#45;8249&#45;ad6c0bfb51df&#45;&gt;f43e6c92&#45;a9ba&#45;401a&#45;b79a&#45;2cfd753fa8c1</title>
<path fill="none" stroke="black" stroke-dasharray="5,2" d="M1312.5,-72.72C1312.5,-64.27 1312.5,-54.89 1312.5,-46.36"/>
<polygon fill="black" stroke="black" points="1316,-46.15 1312.5,-36.15 1309,-46.15 1316,-46.15"/>
</g>
<!-- 52c125f0&#45;82bc&#45;44c0&#45;89f7&#45;48e7deafe9af -->
<g id="node8" class="node">
<title>52c125f0&#45;82bc&#45;44c0&#45;89f7&#45;48e7deafe9af</title>
<ellipse fill="white" stroke="black" cx="2091.5" cy="-99.87" rx="132.87" ry="26.74"/>
<text text-anchor="middle" x="2091.5" y="-103.67" font-family="Helvetica,sans-Serif" font-size="14.00">▶ Modify</text>
<text text-anchor="middle" x="2091.5" y="-88.67" font-family="Helvetica,sans-Serif" font-size="14.00">main/mystore/models.py</text>
</g>
<!-- a5bd0754&#45;4a03&#45;4e76&#45;9862&#45;ef73fdcb113e&#45;&gt;52c125f0&#45;82bc&#45;44c0&#45;89f7&#45;48e7deafe9af -->
<g id="edge10" class="edge">
<title>a5bd0754&#45;4a03&#45;4e76&#45;9862&#45;ef73fdcb113e&#45;&gt;52c125f0&#45;82bc&#45;44c0&#45;89f7&#45;48e7deafe9af</title>
<path fill="none" stroke="black" d="M1825.63,-99.87C1866.56,-99.87 1907.5,-99.87 1948.44,-99.87"/>
<polygon fill="black" stroke="black" points="1948.56,-103.37 1958.56,-99.87 1948.56,-96.37 1948.56,-103.37"/>
</g>
<!-- e37bb63c&#45;1e94&#45;4983&#45;9031&#45;b92ec00f652f -->
<g id="node14" class="node">
<title>e37bb63c&#45;1e94&#45;4983&#45;9031&#45;b92ec00f652f</title>
<polygon fill="white" stroke="black" points="1883.5,-36 1511.5,-36 1511.5,0 1883.5,0 1883.5,-36"/>
<text text-anchor="middle" x="1697.5" y="-14.3" font-family="Helvetica,sans-Serif" font-size="14.00">▶ Run GitHub Actions for `main/mystore/helper.py`</text>
</g>
<!-- a5bd0754&#45;4a03&#45;4e76&#45;9862&#45;ef73fdcb113e&#45;&gt;e37bb63c&#45;1e94&#45;4983&#45;9031&#45;b92ec00f652f -->
<g id="edge9" class="edge">
<title>a5bd0754&#45;4a03&#45;4e76&#45;9862&#45;ef73fdcb113e&#45;&gt;e37bb63c&#45;1e94&#45;4983&#45;9031&#45;b92ec00f652f</title>
<path fill="none" stroke="black" stroke-dasharray="5,2" d="M1697.5,-72.72C1697.5,-64.27 1697.5,-54.89 1697.5,-46.36"/>
<polygon fill="black" stroke="black" points="1701,-46.15 1697.5,-36.15 1694,-46.15 1701,-46.15"/>
</g>
<!-- 90cb1ad9&#45;0518&#45;4ee1&#45;91b2&#45;c549d35d85d0 -->
<g id="node9" class="node">
<title>90cb1ad9&#45;0518&#45;4ee1&#45;91b2&#45;c549d35d85d0</title>
<ellipse fill="white" stroke="black" cx="2431.5" cy="-99.87" rx="121.74" ry="26.74"/>
<text text-anchor="middle" x="2431.5" y="-103.67" font-family="Helvetica,sans-Serif" font-size="14.00">▶ Modify</text>
<text text-anchor="middle" x="2431.5" y="-88.67" font-family="Helvetica,sans-Serif" font-size="14.00">main/mystore/tests.py</text>
</g>
<!-- 52c125f0&#45;82bc&#45;44c0&#45;89f7&#45;48e7deafe9af&#45;&gt;90cb1ad9&#45;0518&#45;4ee1&#45;91b2&#45;c549d35d85d0 -->
<g id="edge12" class="edge">
<title>52c125f0&#45;82bc&#45;44c0&#45;89f7&#45;48e7deafe9af&#45;&gt;90cb1ad9&#45;0518&#45;4ee1&#45;91b2&#45;c549d35d85d0</title>
<path fill="none" stroke="black" d="M2224.64,-99.87C2249.5,-99.87 2274.36,-99.87 2299.21,-99.87"/>
<polygon fill="black" stroke="black" points="2299.49,-103.37 2309.49,-99.87 2299.49,-96.37 2299.49,-103.37"/>
</g>
<!-- c42cc1d4&#45;bf9e&#45;41a9&#45;8119&#45;25ce5307458d -->
<g id="node15" class="node">
<title>c42cc1d4&#45;bf9e&#45;41a9&#45;8119&#45;25ce5307458d</title>
<polygon fill="white" stroke="black" points="2281.5,-36 1901.5,-36 1901.5,0 2281.5,0 2281.5,-36"/>
<text text-anchor="middle" x="2091.5" y="-14.3" font-family="Helvetica,sans-Serif" font-size="14.00">▶ Run GitHub Actions for `main/mystore/models.py`</text>
</g>
<!-- 52c125f0&#45;82bc&#45;44c0&#45;89f7&#45;48e7deafe9af&#45;&gt;c42cc1d4&#45;bf9e&#45;41a9&#45;8119&#45;25ce5307458d -->
<g id="edge11" class="edge">
<title>52c125f0&#45;82bc&#45;44c0&#45;89f7&#45;48e7deafe9af&#45;&gt;c42cc1d4&#45;bf9e&#45;41a9&#45;8119&#45;25ce5307458d</title>
<path fill="none" stroke="black" stroke-dasharray="5,2" d="M2091.5,-72.72C2091.5,-64.27 2091.5,-54.89 2091.5,-46.36"/>
<polygon fill="black" stroke="black" points="2095,-46.15 2091.5,-36.15 2088,-46.15 2095,-46.15"/>
</g>
<!-- 90cb1ad9&#45;0518&#45;4ee1&#45;91b2&#45;c549d35d85d0&#45;&gt;end -->
<g id="edge15" class="edge">
<title>90cb1ad9&#45;0518&#45;4ee1&#45;91b2&#45;c549d35d85d0&#45;&gt;end</title>
<path fill="none" stroke="black" d="M2553.56,-99.87C2573.1,-99.87 2590.33,-99.87 2600.81,-99.87"/>
<polygon fill="black" stroke="black" points="2600.83,-103.37 2610.83,-99.87 2600.83,-96.37 2600.83,-103.37"/>
<text text-anchor="middle" x="2582.06" y="-106.67" font-family="Helvetica,sans-Serif" font-size="14.00">Finish</text>
</g>
<!-- 59db136f&#45;c261&#45;404a&#45;90ee&#45;25382178ac82 -->
<g id="node16" class="node">
<title>59db136f&#45;c261&#45;404a&#45;90ee&#45;25382178ac82</title>
<polygon fill="white" stroke="black" points="2663,-36 2300,-36 2300,0 2663,0 2663,-36"/>
<text text-anchor="middle" x="2481.5" y="-14.3" font-family="Helvetica,sans-Serif" font-size="14.00">▶ Run GitHub Actions for `main/mystore/tests.py`</text>
</g>
<!-- 90cb1ad9&#45;0518&#45;4ee1&#45;91b2&#45;c549d35d85d0&#45;&gt;59db136f&#45;c261&#45;404a&#45;90ee&#45;25382178ac82 -->
<g id="edge13" class="edge">
<title>90cb1ad9&#45;0518&#45;4ee1&#45;91b2&#45;c549d35d85d0&#45;&gt;59db136f&#45;c261&#45;404a&#45;90ee&#45;25382178ac82</title>
<path fill="none" stroke="black" stroke-dasharray="5,2" d="M2447.6,-73.16C2453.25,-64.13 2459.6,-53.98 2465.26,-44.94"/>
<polygon fill="black" stroke="black" points="2468.31,-46.67 2470.65,-36.34 2462.37,-42.96 2468.31,-46.67"/>
</g>
</g>
</svg>
