<?xml version="1.0" encoding="UTF-8" standalone="no"?>
<!DOCTYPE svg PUBLIC "-//W3C//DTD SVG 1.1//EN"
 "http://www.w3.org/Graphics/SVG/1.1/DTD/svg11.dtd">
<!-- Generated by graphviz version 2.43.0 (0)
 -->
<!-- Title: %3 Pages: 1 -->
<svg width="2739pt" height="238pt"
 viewBox="0.00 0.00 2739.00 237.74" xmlns="http://www.w3.org/2000/svg" xmlns:xlink="http://www.w3.org/1999/xlink">
<g id="graph0" class="graph" transform="scale(1 1) rotate(0) translate(36 201.74)">
<title>%3</title>
<polygon fill="dimgray" stroke="transparent" points="-36,36 -36,-201.74 2703,-201.74 2703,36 -36,36"/>
<text text-anchor="middle" x="1333.5" y="-150.54" font-family="Helvetica,sans-Serif" font-size="14.00">Sweep&#39;s Plan &amp; Progress</text>
<!-- start -->
<g id="node1" class="node">
<title>start</title>
</g>
<!-- 3d6f9e76&#45;949c&#45;45f3&#45;81b9&#45;f93551da6611 -->
<g id="node3" class="node">
<title>3d6f9e76&#45;949c&#45;45f3&#45;81b9&#45;f93551da6611</title>
<ellipse fill="#0ee832" stroke="black" cx="222.5" cy="-99.87" rx="101.23" ry="26.74"/>
<text text-anchor="middle" x="222.5" y="-103.67" font-family="Helvetica,sans-Serif" font-size="14.00">✓ Modify</text>
<text text-anchor="middle" x="222.5" y="-88.67" font-family="Helvetica,sans-Serif" font-size="14.00">main/main/urls.py</text>
</g>
<!-- start&#45;&gt;3d6f9e76&#45;949c&#45;45f3&#45;81b9&#45;f93551da6611 -->
<g id="edge14" class="edge">
<title>start&#45;&gt;3d6f9e76&#45;949c&#45;45f3&#45;81b9&#45;f93551da6611</title>
<path fill="none" stroke="black" d="M70.18,-99.87C73.66,-99.87 90.09,-99.87 110.96,-99.87"/>
<polygon fill="black" stroke="black" points="111.17,-103.37 121.17,-99.87 111.17,-96.37 111.17,-103.37"/>
<text text-anchor="middle" x="95.69" y="-106.67" font-family="Helvetica,sans-Serif" font-size="14.00">Start</text>
</g>
<!-- end -->
<g id="node2" class="node">
<title>end</title>
</g>
<!-- 5efa5089&#45;ca33&#45;4e11&#45;bad9&#45;f62b9dfc4952 -->
<g id="node4" class="node">
<title>5efa5089&#45;ca33&#45;4e11&#45;bad9&#45;f62b9dfc4952</title>
<ellipse fill="#0ee832" stroke="black" cx="539.5" cy="-99.87" rx="125.32" ry="26.74"/>
<text text-anchor="middle" x="539.5" y="-103.67" font-family="Helvetica,sans-Serif" font-size="14.00">✓ Modify</text>
<text text-anchor="middle" x="539.5" y="-88.67" font-family="Helvetica,sans-Serif" font-size="14.00">main/mystore/views.py</text>
</g>
<!-- 3d6f9e76&#45;949c&#45;45f3&#45;81b9&#45;f93551da6611&#45;&gt;5efa5089&#45;ca33&#45;4e11&#45;bad9&#45;f62b9dfc4952 -->
<g id="edge2" class="edge">
<title>3d6f9e76&#45;949c&#45;45f3&#45;81b9&#45;f93551da6611&#45;&gt;5efa5089&#45;ca33&#45;4e11&#45;bad9&#45;f62b9dfc4952</title>
<path fill="none" stroke="black" d="M323.73,-99.87C350.51,-99.87 377.29,-99.87 404.07,-99.87"/>
<polygon fill="black" stroke="black" points="404.34,-103.37 414.34,-99.87 404.34,-96.37 404.34,-103.37"/>
</g>
<!-- 66c4b854&#45;b9f5&#45;4f3c&#45;9756&#45;9bba57cc99c0 -->
<g id="node10" class="node">
<title>66c4b854&#45;b9f5&#45;4f3c&#45;9756&#45;9bba57cc99c0</title>
<polygon fill="#0ee832" stroke="black" points="335,-36 0,-36 0,0 335,0 335,-36"/>
<text text-anchor="middle" x="167.5" y="-14.3" font-family="Helvetica,sans-Serif" font-size="14.00">✓ Run GitHub Actions for `main/main/urls.py`</text>
</g>
<!-- 3d6f9e76&#45;949c&#45;45f3&#45;81b9&#45;f93551da6611&#45;&gt;66c4b854&#45;b9f5&#45;4f3c&#45;9756&#45;9bba57cc99c0 -->
<g id="edge1" class="edge">
<title>3d6f9e76&#45;949c&#45;45f3&#45;81b9&#45;f93551da6611&#45;&gt;66c4b854&#45;b9f5&#45;4f3c&#45;9756&#45;9bba57cc99c0</title>
<path fill="none" stroke="black" stroke-dasharray="5,2" d="M204.79,-73.16C198.51,-64.04 191.45,-53.77 185.17,-44.65"/>
<polygon fill="black" stroke="black" points="187.99,-42.59 179.44,-36.34 182.23,-46.56 187.99,-42.59"/>
</g>
<!-- 604c194e&#45;882a&#45;419b&#45;8c1d&#45;cde66ae64700 -->
<g id="node5" class="node">
<title>604c194e&#45;882a&#45;419b&#45;8c1d&#45;cde66ae64700</title>
<ellipse fill="white" stroke="black" cx="930.5" cy="-99.87" rx="128.89" ry="26.74"/>
<text text-anchor="middle" x="930.5" y="-103.67" font-family="Helvetica,sans-Serif" font-size="14.00">▶ Modify</text>
<text text-anchor="middle" x="930.5" y="-88.67" font-family="Helvetica,sans-Serif" font-size="14.00">main/mystore/admin.py</text>
</g>
<!-- 5efa5089&#45;ca33&#45;4e11&#45;bad9&#45;f62b9dfc4952&#45;&gt;604c194e&#45;882a&#45;419b&#45;8c1d&#45;cde66ae64700 -->
<g id="edge4" class="edge">
<title>5efa5089&#45;ca33&#45;4e11&#45;bad9&#45;f62b9dfc4952&#45;&gt;604c194e&#45;882a&#45;419b&#45;8c1d&#45;cde66ae64700</title>
<path fill="none" stroke="black" d="M664.74,-99.87C707.03,-99.87 749.32,-99.87 791.6,-99.87"/>
<polygon fill="black" stroke="black" points="791.77,-103.37 801.77,-99.87 791.77,-96.37 791.77,-103.37"/>
</g>
<!-- f101ff5e&#45;6951&#45;4870&#45;bd89&#45;78efb8a521ce -->
<g id="node11" class="node">
<title>f101ff5e&#45;6951&#45;4870&#45;bd89&#45;78efb8a521ce</title>
<polygon fill="yellow" stroke="black" points="725.5,-36 353.5,-36 353.5,0 725.5,0 725.5,-36"/>
<text text-anchor="middle" x="539.5" y="-14.3" font-family="Helvetica,sans-Serif" font-size="14.00">⋯ Run GitHub Actions for `main/mystore/views.py`</text>
</g>
<!-- 5efa5089&#45;ca33&#45;4e11&#45;bad9&#45;f62b9dfc4952&#45;&gt;f101ff5e&#45;6951&#45;4870&#45;bd89&#45;78efb8a521ce -->
<g id="edge3" class="edge">
<title>5efa5089&#45;ca33&#45;4e11&#45;bad9&#45;f62b9dfc4952&#45;&gt;f101ff5e&#45;6951&#45;4870&#45;bd89&#45;78efb8a521ce</title>
<path fill="none" stroke="black" stroke-dasharray="5,2" d="M539.5,-72.72C539.5,-64.27 539.5,-54.89 539.5,-46.36"/>
<polygon fill="black" stroke="black" points="543,-46.15 539.5,-36.15 536,-46.15 543,-46.15"/>
</g>
<!-- 285886de&#45;6b0b&#45;448b&#45;8249&#45;ad6c0bfb51df -->
<g id="node6" class="node">
<title>285886de&#45;6b0b&#45;448b&#45;8249&#45;ad6c0bfb51df</title>
<ellipse fill="white" stroke="black" cx="1316.5" cy="-99.87" rx="121.74" ry="26.74"/>
<text text-anchor="middle" x="1316.5" y="-103.67" font-family="Helvetica,sans-Serif" font-size="14.00">▶ Modify</text>
<text text-anchor="middle" x="1316.5" y="-88.67" font-family="Helvetica,sans-Serif" font-size="14.00">main/mystore/apps.py</text>
</g>
<!-- 604c194e&#45;882a&#45;419b&#45;8c1d&#45;cde66ae64700&#45;&gt;285886de&#45;6b0b&#45;448b&#45;8249&#45;ad6c0bfb51df -->
<g id="edge6" class="edge">
<title>604c194e&#45;882a&#45;419b&#45;8c1d&#45;cde66ae64700&#45;&gt;285886de&#45;6b0b&#45;448b&#45;8249&#45;ad6c0bfb51df</title>
<path fill="none" stroke="black" d="M1059.42,-99.87C1101.18,-99.87 1142.94,-99.87 1184.69,-99.87"/>
<polygon fill="black" stroke="black" points="1184.74,-103.37 1194.74,-99.87 1184.74,-96.37 1184.74,-103.37"/>
</g>
<!-- 96071ede&#45;1b97&#45;4577&#45;92d2&#45;fc11a32841a4 -->
<g id="node12" class="node">
<title>96071ede&#45;1b97&#45;4577&#45;92d2&#45;fc11a32841a4</title>
<polygon fill="white" stroke="black" points="1117,-36 744,-36 744,0 1117,0 1117,-36"/>
<text text-anchor="middle" x="930.5" y="-14.3" font-family="Helvetica,sans-Serif" font-size="14.00">▶ Run GitHub Actions for `main/mystore/admin.py`</text>
</g>
<!-- 604c194e&#45;882a&#45;419b&#45;8c1d&#45;cde66ae64700&#45;&gt;96071ede&#45;1b97&#45;4577&#45;92d2&#45;fc11a32841a4 -->
<g id="edge5" class="edge">
<title>604c194e&#45;882a&#45;419b&#45;8c1d&#45;cde66ae64700&#45;&gt;96071ede&#45;1b97&#45;4577&#45;92d2&#45;fc11a32841a4</title>
<path fill="none" stroke="black" stroke-dasharray="5,2" d="M930.5,-72.72C930.5,-64.27 930.5,-54.89 930.5,-46.36"/>
<polygon fill="black" stroke="black" points="934,-46.15 930.5,-36.15 927,-46.15 934,-46.15"/>
</g>
<!-- a5bd0754&#45;4a03&#45;4e76&#45;9862&#45;ef73fdcb113e -->
<g id="node7" class="node">
<title>a5bd0754&#45;4a03&#45;4e76&#45;9862&#45;ef73fdcb113e</title>
<ellipse fill="white" stroke="black" cx="1701.5" cy="-99.87" rx="127.97" ry="26.74"/>
<text text-anchor="middle" x="1701.5" y="-103.67" font-family="Helvetica,sans-Serif" font-size="14.00">▶ Modify</text>
<text text-anchor="middle" x="1701.5" y="-88.67" font-family="Helvetica,sans-Serif" font-size="14.00">main/mystore/helper.py</text>
</g>
<!-- 285886de&#45;6b0b&#45;448b&#45;8249&#45;ad6c0bfb51df&#45;&gt;a5bd0754&#45;4a03&#45;4e76&#45;9862&#45;ef73fdcb113e -->
<g id="edge8" class="edge">
<title>285886de&#45;6b0b&#45;448b&#45;8249&#45;ad6c0bfb51df&#45;&gt;a5bd0754&#45;4a03&#45;4e76&#45;9862&#45;ef73fdcb113e</title>
<path fill="none" stroke="black" d="M1438.32,-99.87C1480.04,-99.87 1521.75,-99.87 1563.47,-99.87"/>
<polygon fill="black" stroke="black" points="1563.51,-103.37 1573.51,-99.87 1563.51,-96.37 1563.51,-103.37"/>
</g>
<!-- f43e6c92&#45;a9ba&#45;401a&#45;b79a&#45;2cfd753fa8c1 -->
<g id="node13" class="node">
<title>f43e6c92&#45;a9ba&#45;401a&#45;b79a&#45;2cfd753fa8c1</title>
<polygon fill="white" stroke="black" points="1498,-36 1135,-36 1135,0 1498,0 1498,-36"/>
<text text-anchor="middle" x="1316.5" y="-14.3" font-family="Helvetica,sans-Serif" font-size="14.00">▶ Run GitHub Actions for `main/mystore/apps.py`</text>
</g>
<!-- 285886de&#45;6b0b&#45;448b&#45;8249&#45;ad6c0bfb51df&#45;&gt;f43e6c92&#45;a9ba&#45;401a&#45;b79a&#45;2cfd753fa8c1 -->
<g id="edge7" class="edge">
<title>285886de&#45;6b0b&#45;448b&#45;8249&#45;ad6c0bfb51df&#45;&gt;f43e6c92&#45;a9ba&#45;401a&#45;b79a&#45;2cfd753fa8c1</title>
<path fill="none" stroke="black" stroke-dasharray="5,2" d="M1316.5,-72.72C1316.5,-64.27 1316.5,-54.89 1316.5,-46.36"/>
<polygon fill="black" stroke="black" points="1320,-46.15 1316.5,-36.15 1313,-46.15 1320,-46.15"/>
</g>
<!-- 52c125f0&#45;82bc&#45;44c0&#45;89f7&#45;48e7deafe9af -->
<g id="node8" class="node">
<title>52c125f0&#45;82bc&#45;44c0&#45;89f7&#45;48e7deafe9af</title>
<ellipse fill="white" stroke="black" cx="2095.5" cy="-99.87" rx="132.87" ry="26.74"/>
<text text-anchor="middle" x="2095.5" y="-103.67" font-family="Helvetica,sans-Serif" font-size="14.00">▶ Modify</text>
<text text-anchor="middle" x="2095.5" y="-88.67" font-family="Helvetica,sans-Serif" font-size="14.00">main/mystore/models.py</text>
</g>
<!-- a5bd0754&#45;4a03&#45;4e76&#45;9862&#45;ef73fdcb113e&#45;&gt;52c125f0&#45;82bc&#45;44c0&#45;89f7&#45;48e7deafe9af -->
<g id="edge10" class="edge">
<title>a5bd0754&#45;4a03&#45;4e76&#45;9862&#45;ef73fdcb113e&#45;&gt;52c125f0&#45;82bc&#45;44c0&#45;89f7&#45;48e7deafe9af</title>
<path fill="none" stroke="black" d="M1829.63,-99.87C1870.56,-99.87 1911.5,-99.87 1952.44,-99.87"/>
<polygon fill="black" stroke="black" points="1952.56,-103.37 1962.56,-99.87 1952.56,-96.37 1952.56,-103.37"/>
</g>
<!-- e37bb63c&#45;1e94&#45;4983&#45;9031&#45;b92ec00f652f -->
<g id="node14" class="node">
<title>e37bb63c&#45;1e94&#45;4983&#45;9031&#45;b92ec00f652f</title>
<polygon fill="white" stroke="black" points="1887.5,-36 1515.5,-36 1515.5,0 1887.5,0 1887.5,-36"/>
<text text-anchor="middle" x="1701.5" y="-14.3" font-family="Helvetica,sans-Serif" font-size="14.00">▶ Run GitHub Actions for `main/mystore/helper.py`</text>
</g>
<!-- a5bd0754&#45;4a03&#45;4e76&#45;9862&#45;ef73fdcb113e&#45;&gt;e37bb63c&#45;1e94&#45;4983&#45;9031&#45;b92ec00f652f -->
<g id="edge9" class="edge">
<title>a5bd0754&#45;4a03&#45;4e76&#45;9862&#45;ef73fdcb113e&#45;&gt;e37bb63c&#45;1e94&#45;4983&#45;9031&#45;b92ec00f652f</title>
<path fill="none" stroke="black" stroke-dasharray="5,2" d="M1701.5,-72.72C1701.5,-64.27 1701.5,-54.89 1701.5,-46.36"/>
<polygon fill="black" stroke="black" points="1705,-46.15 1701.5,-36.15 1698,-46.15 1705,-46.15"/>
</g>
<!-- 90cb1ad9&#45;0518&#45;4ee1&#45;91b2&#45;c549d35d85d0 -->
<g id="node9" class="node">
<title>90cb1ad9&#45;0518&#45;4ee1&#45;91b2&#45;c549d35d85d0</title>
<ellipse fill="white" stroke="black" cx="2435.5" cy="-99.87" rx="121.74" ry="26.74"/>
<text text-anchor="middle" x="2435.5" y="-103.67" font-family="Helvetica,sans-Serif" font-size="14.00">▶ Modify</text>
<text text-anchor="middle" x="2435.5" y="-88.67" font-family="Helvetica,sans-Serif" font-size="14.00">main/mystore/tests.py</text>
</g>
<!-- 52c125f0&#45;82bc&#45;44c0&#45;89f7&#45;48e7deafe9af&#45;&gt;90cb1ad9&#45;0518&#45;4ee1&#45;91b2&#45;c549d35d85d0 -->
<g id="edge12" class="edge">
<title>52c125f0&#45;82bc&#45;44c0&#45;89f7&#45;48e7deafe9af&#45;&gt;90cb1ad9&#45;0518&#45;4ee1&#45;91b2&#45;c549d35d85d0</title>
<path fill="none" stroke="black" d="M2228.64,-99.87C2253.5,-99.87 2278.36,-99.87 2303.21,-99.87"/>
<polygon fill="black" stroke="black" points="2303.49,-103.37 2313.49,-99.87 2303.49,-96.37 2303.49,-103.37"/>
</g>
<!-- c42cc1d4&#45;bf9e&#45;41a9&#45;8119&#45;25ce5307458d -->
<g id="node15" class="node">
<title>c42cc1d4&#45;bf9e&#45;41a9&#45;8119&#45;25ce5307458d</title>
<polygon fill="white" stroke="black" points="2285.5,-36 1905.5,-36 1905.5,0 2285.5,0 2285.5,-36"/>
<text text-anchor="middle" x="2095.5" y="-14.3" font-family="Helvetica,sans-Serif" font-size="14.00">▶ Run GitHub Actions for `main/mystore/models.py`</text>
</g>
<!-- 52c125f0&#45;82bc&#45;44c0&#45;89f7&#45;48e7deafe9af&#45;&gt;c42cc1d4&#45;bf9e&#45;41a9&#45;8119&#45;25ce5307458d -->
<g id="edge11" class="edge">
<title>52c125f0&#45;82bc&#45;44c0&#45;89f7&#45;48e7deafe9af&#45;&gt;c42cc1d4&#45;bf9e&#45;41a9&#45;8119&#45;25ce5307458d</title>
<path fill="none" stroke="black" stroke-dasharray="5,2" d="M2095.5,-72.72C2095.5,-64.27 2095.5,-54.89 2095.5,-46.36"/>
<polygon fill="black" stroke="black" points="2099,-46.15 2095.5,-36.15 2092,-46.15 2099,-46.15"/>
</g>
<!-- 90cb1ad9&#45;0518&#45;4ee1&#45;91b2&#45;c549d35d85d0&#45;&gt;end -->
<g id="edge15" class="edge">
<title>90cb1ad9&#45;0518&#45;4ee1&#45;91b2&#45;c549d35d85d0&#45;&gt;end</title>
<path fill="none" stroke="black" d="M2557.56,-99.87C2577.1,-99.87 2594.33,-99.87 2604.81,-99.87"/>
<polygon fill="black" stroke="black" points="2604.83,-103.37 2614.83,-99.87 2604.83,-96.37 2604.83,-103.37"/>
<text text-anchor="middle" x="2586.06" y="-106.67" font-family="Helvetica,sans-Serif" font-size="14.00">Finish</text>
</g>
<!-- 59db136f&#45;c261&#45;404a&#45;90ee&#45;25382178ac82 -->
<g id="node16" class="node">
<title>59db136f&#45;c261&#45;404a&#45;90ee&#45;25382178ac82</title>
<polygon fill="white" stroke="black" points="2667,-36 2304,-36 2304,0 2667,0 2667,-36"/>
<text text-anchor="middle" x="2485.5" y="-14.3" font-family="Helvetica,sans-Serif" font-size="14.00">▶ Run GitHub Actions for `main/mystore/tests.py`</text>
</g>
<!-- 90cb1ad9&#45;0518&#45;4ee1&#45;91b2&#45;c549d35d85d0&#45;&gt;59db136f&#45;c261&#45;404a&#45;90ee&#45;25382178ac82 -->
<g id="edge13" class="edge">
<title>90cb1ad9&#45;0518&#45;4ee1&#45;91b2&#45;c549d35d85d0&#45;&gt;59db136f&#45;c261&#45;404a&#45;90ee&#45;25382178ac82</title>
<path fill="none" stroke="black" stroke-dasharray="5,2" d="M2451.6,-73.16C2457.25,-64.13 2463.6,-53.98 2469.26,-44.94"/>
<polygon fill="black" stroke="black" points="2472.31,-46.67 2474.65,-36.34 2466.37,-42.96 2472.31,-46.67"/>
</g>
</g>
</svg>
